<svg version="1.1" width="984" height="880" xmlns="http://www.w3.org/2000/svg"><rect width="100%" height="100%" fill="white"/><line x1="258" x2="258" y1="65" y2="95" stroke="black" stroke-width="5" stroke-linecap="round"/><line x1="258" x2="284" y1="95" y2="110" stroke="black" stroke-width="5" stroke-linecap="round"/><line x1="310" x2="310" y1="95" y2="65" stroke="black" stroke-width="5" stroke-linecap="round"/><line x1="310" x2="284" y1="65" y2="50" stroke="black" stroke-width="5" stroke-linecap="round"/><line x1="336" x2="310" y1="50" y2="65" stroke="black" stroke-width="5" stroke-linecap="round"/><line x1="310" x2="336" y1="95" y2="110" stroke="black" stroke-width="5" stroke-linecap="round"/><line x1="336" x2="362" y1="110" y2="95" stroke="black" stroke-width="5" stroke-linecap="round"/><line x1="362" x2="336" y1="65" y2="50" stroke="black" stroke-width="5" stroke-linecap="round"/><line x1="388" x2="362" y1="50" y2="65" stroke="black" stroke-width="5" stroke-linecap="round"/><line x1="362" x2="388" y1="95" y2="110" stroke="black" stroke-width="5" stroke-linecap="round"/><line x1="388" x2="414" y1="110" y2="95" stroke="black" stroke-width="5" stroke-linecap="round"/><line x1="414" x2="388" y1="65" y2="50" stroke="black" stroke-width="5" stroke-linecap="round"/><line x1="440" x2="414" y1="50" y2="65" stroke="black" stroke-width="5" stroke-linecap="round"/><line x1="414" x2="440" y1="95" y2="110" stroke="black" stroke-width="5" stroke-linecap="round"/><line x1="440" x2="466" y1="110" y2="95" stroke="black" stroke-width="5" stroke-linecap="round"/><line x1="466" x2="440" y1="65" y2="50" stroke="black" stroke-width="5" stroke-linecap="round"/><line x1="492" x2="466" y1="50" y2="65" stroke="black" stroke-width="5" stroke-linecap="round"/><line x1="466" x2="492" y1="95" y2="110" stroke="black" stroke-width="5" stroke-linecap="round"/><line x1="492" x2="518" y1="110" y2="95" stroke="black" stroke-width="5" stroke-linecap="round"/><line x1="518" x2="492" y1="65" y2="50" stroke="black" stroke-width="5" stroke-linecap="round"/><line x1="544" x2="518" y1="50" y2="65" stroke="black" stroke-width="5" stroke-linecap="round"/><line x1="544" x2="570" y1="110" y2="95" stroke="black" stroke-width="5" stroke-linecap="round"/><line x1="570" x2="544" y1="65" y2="50" stroke="black" stroke-width="5" stroke-linecap="round"/><line x1="596" x2="570" y1="50" y2="65" stroke="black" stroke-width="5" stroke-linecap="round"/><line x1="596" x2="622" y1="110" y2="95" stroke="black" stroke-width="5" stroke-linecap="round"/><line x1="622" x2="622" y1="95" y2="65" stroke="black" stroke-width="5" stroke-linecap="round"/><line x1="622" x2="596" y1="65" y2="50" stroke="black" stroke-width="5" stroke-linecap="round"/><line x1="648" x2="622" y1="50" y2="65" stroke="black" stroke-width="5" stroke-linecap="round"/><line x1="648" x2="674" y1="110" y2="95" stroke="black" stroke-width="5" stroke-linecap="round"/><line x1="674" x2="648" y1="65" y2="50" stroke="black" stroke-width="5" stroke-linecap="round"/><line x1="700" x2="674" y1="50" y2="65" stroke="black" stroke-width="5" stroke-linecap="round"/><line x1="726" x2="726" y1="95" y2="65" stroke="black" stroke-width="5" stroke-linecap="round"/><line x1="726" x2="700" y1="65" y2="50" stroke="black" stroke-width="5" stroke-linecap="round"/><line x1="258" x2="232" y1="95" y2="110" stroke="black" stroke-width="5" stroke-linecap="round"/><line x1="232" x2="232" y1="110" y2="140" stroke="black" stroke-width="5" stroke-linecap="round"/><line x1="232" x2="258" y1="140" y2="155" stroke="black" stroke-width="5" stroke-linecap="round"/><line x1="284" x2="284" y1="140" y2="110" stroke="black" stroke-width="5" stroke-linecap="round"/><line x1="284" x2="310" y1="140" y2="155" stroke="black" stroke-width="5" stroke-linecap="round"/><line x1="336" x2="336" y1="140" y2="110" stroke="black" stroke-width="5" stroke-linecap="round"/><line x1="362" x2="388" y1="155" y2="140" stroke="black" stroke-width="5" stroke-linecap="round"/><line x1="388" x2="414" y1="140" y2="155" stroke="black" stroke-width="5" stroke-linecap="round"/><line x1="414" x2="440" y1="155" y2="140" stroke="black" stroke-width="5" stroke-linecap="round"/><line x1="440" x2="466" y1="140" y2="155" stroke="black" stroke-width="5" stroke-linecap="round"/><line x1="466" x2="492" y1="155" y2="140" stroke="black" stroke-width="5" stroke-linecap="round"/><line x1="492" x2="518" y1="140" y2="155" stroke="black" stroke-width="5" stroke-linecap="round"/><line x1="518" x2="544" y1="155" y2="140" stroke="black" stroke-width="5" stroke-linecap="round"/><line x1="544" x2="544" y1="140" y2="110" stroke="black" stroke-width="5" stroke-linecap="round"/><line x1="544" x2="570" y1="140" y2="155" stroke="black" stroke-width="5" stroke-linecap="round"/><line x1="596" x2="596" y1="140" y2="110" stroke="black" stroke-width="5" stroke-linecap="round"/><line x1="596" x2="622" y1="140" y2="155" stroke="black" stroke-width="5" stroke-linecap="round"/><line x1="622" x2="648" y1="155" y2="140" stroke="black" stroke-width="5" stroke-linecap="round"/><line x1="648" x2="648" y1="140" y2="110" stroke="black" stroke-width="5" stroke-linecap="round"/><line x1="674" x2="700" y1="155" y2="140" stroke="black" stroke-width="5" stroke-linecap="round"/><line x1="700" x2="700" y1="140" y2="110" stroke="black" stroke-width="5" stroke-linecap="round"/><line x1="700" x2="726" y1="140" y2="155" stroke="black" stroke-width="5" stroke-linecap="round"/><line x1="752" x2="752" y1="140" y2="110" stroke="black" stroke-width="5" stroke-linecap="round"/><line x1="752" x2="726" y1="110" y2="95" stroke="black" stroke-width="5" stroke-linecap="round"/><line x1="232" x2="206" y1="140" y2="155" stroke="black" stroke-width="5" stroke-linecap="round"/><line x1="206" x2="206" y1="155" y2="185" stroke="black" stroke-width="5" stroke-linecap="round"/><line x1="258" x2="284" y1="185" y2="200" stroke="black" stroke-width="5" stroke-linecap="round"/><line x1="284" x2="310" y1="200" y2="185" stroke="black" stroke-width="5" stroke-linecap="round"/><line x1="310" x2="310" y1="185" y2="155" stroke="black" stroke-width="5" stroke-linecap="round"/><line x1="310" x2="336" y1="185" y2="200" stroke="black" stroke-width="5" stroke-linecap="round"/><line x1="336" x2="362" y1="200" y2="185" stroke="black" stroke-width="5" stroke-linecap="round"/><line x1="362" x2="362" y1="185" y2="155" stroke="black" stroke-width="5" stroke-linecap="round"/><line x1="414" x2="414" y1="185" y2="155" stroke="black" stroke-width="5" stroke-linecap="round"/><line x1="414" x2="440" y1="185" y2="200" stroke="black" stroke-width="5" stroke-linecap="round"/><line x1="466" x2="492" y1="185" y2="200" stroke="black" stroke-width="5" stroke-linecap="round"/><line x1="492" x2="518" y1="200" y2="185" stroke="black" stroke-width="5" stroke-linecap="round"/><line x1="518" x2="544" y1="185" y2="200" stroke="black" stroke-width="5" stroke-linecap="round"/><line x1="544" x2="570" y1="200" y2="185" stroke="black" stroke-width="5" stroke-linecap="round"/><line x1="570" x2="570" y1="185" y2="155" stroke="black" stroke-width="5" stroke-linecap="round"/><line x1="570" x2="596" y1="185" y2="200" stroke="black" stroke-width="5" stroke-linecap="round"/><line x1="596" x2="622" y1="200" y2="185" stroke="black" stroke-width="5" stroke-linecap="round"/><line x1="622" x2="648" y1="185" y2="200" stroke="black" stroke-width="5" stroke-linecap="round"/><line x1="648" x2="674" y1="200" y2="185" stroke="black" stroke-width="5" stroke-linecap="round"/><line x1="674" x2="674" y1="185" y2="155" stroke="black" stroke-width="5" stroke-linecap="round"/><line x1="700" x2="726" y1="200" y2="185" stroke="black" stroke-width="5" stroke-linecap="round"/><line x1="726" x2="726" y1="185" y2="155" stroke="black" stroke-width="5" stroke-linecap="round"/><line x1="752" x2="778" y1="200" y2="185" stroke="black" stroke-width="5" stroke-linecap="round"/><line x1="778" x2="778" y1="185" y2="155" stroke="black" stroke-width="5" stroke-linecap="round"/><line x1="778" x2="752" y1="155" y2="140" stroke="black" stroke-width="5" stroke-linecap="round"/><line x1="206" x2="180" y1="185" y2="200" stroke="black" stroke-width="5" stroke-linecap="round"/><line x1="180" x2="180" y1="200" y2="230" stroke="black" stroke-width="5" stroke-linecap="round"/><line x1="180" x2="206" y1="230" y2="245" stroke="black" stroke-width="5" stroke-linecap="round"/><line x1="232" x2="232" y1="230" y2="200" stroke="black" stroke-width="5" stroke-linecap="round"/><line x1="232" x2="258" y1="230" y2="245" stroke="black" stroke-width="5" stroke-linecap="round"/><line x1="258" x2="284" y1="245" y2="230" stroke="black" stroke-width="5" stroke-linecap="round"/><line x1="310" x2="336" y1="245" y2="230" stroke="black" stroke-width="5" stroke-linecap="round"/><line x1="336" x2="362" y1="230" y2="245" stroke="black" stroke-width="5" stroke-linecap="round"/><line x1="362" x2="388" y1="245" y2="230" stroke="black" stroke-width="5" stroke-linecap="round"/><line x1="388" x2="388" y1="230" y2="200" stroke="black" stroke-width="5" stroke-linecap="round"/><line x1="388" x2="414" y1="230" y2="245" stroke="black" stroke-width="5" stroke-linecap="round"/><line x1="440" x2="440" y1="230" y2="200" stroke="black" stroke-width="5" stroke-linecap="round"/><line x1="440" x2="466" y1="230" y2="245" stroke="black" stroke-width="5" stroke-linecap="round"/><line x1="466" x2="492" y1="245" y2="230" stroke="black" stroke-width="5" stroke-linecap="round"/><line x1="492" x2="518" y1="230" y2="245" stroke="black" stroke-width="5" stroke-linecap="round"/><line x1="544" x2="544" y1="230" y2="200" stroke="black" stroke-width="5" stroke-linecap="round"/><line x1="596" x2="596" y1="230" y2="200" stroke="black" stroke-width="5" stroke-linecap="round"/><line x1="596" x2="622" y1="230" y2="245" stroke="black" stroke-width="5" stroke-linecap="round"/><line x1="648" x2="674" y1="230" y2="245" stroke="black" stroke-width="5" stroke-linecap="round"/><line x1="674" x2="700" y1="245" y2="230" stroke="black" stroke-width="5" stroke-linecap="round"/><line x1="700" x2="726" y1="230" y2="245" stroke="black" stroke-width="5" stroke-linecap="round"/><line x1="726" x2="752" y1="245" y2="230" stroke="black" stroke-width="5" stroke-linecap="round"/><line x1="752" x2="752" y1="230" y2="200" stroke="black" stroke-width="5" stroke-linecap="round"/><line x1="752" x2="778" y1="230" y2="245" stroke="black" stroke-width="5" stroke-linecap="round"/><line x1="804" x2="804" y1="230" y2="200" stroke="black" stroke-width="5" stroke-linecap="round"/><line x1="804" x2="778" y1="200" y2="185" stroke="black" stroke-width="5" stroke-linecap="round"/><line x1="180" x2="154" y1="230" y2="245" stroke="black" stroke-width="5" stroke-linecap="round"/><line x1="154" x2="154" y1="245" y2="275" stroke="black" stroke-width="5" stroke-linecap="round"/><line x1="180" x2="206" y1="290" y2="275" stroke="black" stroke-width="5" stroke-linecap="round"/><line x1="206" x2="232" y1="275" y2="290" stroke="black" stroke-width="5" stroke-linecap="round"/><line x1="232" x2="258" y1="290" y2="275" stroke="black" stroke-width="5" stroke-linecap="round"/><line x1="258" x2="258" y1="275" y2="245" stroke="black" stroke-width="5" stroke-linecap="round"/><line x1="258" x2="284" y1="275" y2="290" stroke="black" stroke-width="5" stroke-linecap="round"/><line x1="284" x2="310" y1="290" y2="275" stroke="black" stroke-width="5" stroke-linecap="round"/><line x1="310" x2="336" y1="275" y2="290" stroke="black" stroke-width="5" stroke-linecap="round"/><line x1="336" x2="362" y1="290" y2="275" stroke="black" stroke-width="5" stroke-linecap="round"/><line x1="388" x2="414" y1="290" y2="275" stroke="black" stroke-width="5" stroke-linecap="round"/><line x1="414" x2="414" y1="275" y2="245" stroke="black" stroke-width="5" stroke-linecap="round"/><line x1="440" x2="466" y1="290" y2="275" stroke="black" stroke-width="5" stroke-linecap="round"/><line x1="466" x2="466" y1="275" y2="245" stroke="black" stroke-width="5" stroke-linecap="round"/><line x1="518" x2="518" y1="275" y2="245" stroke="black" stroke-width="5" stroke-linecap="round"/><line x1="518" x2="544" y1="275" y2="290" stroke="black" stroke-width="5" stroke-linecap="round"/><line x1="544" x2="570" y1="290" y2="275" stroke="black" stroke-width="5" stroke-linecap="round"/><line x1="570" x2="570" y1="275" y2="245" stroke="black" stroke-width="5" stroke-linecap="round"/><line x1="622" x2="622" y1="275" y2="245" stroke="black" stroke-width="5" stroke-linecap="round"/><line x1="622" x2="648" y1="275" y2="290" stroke="black" stroke-width="5" stroke-linecap="round"/><line x1="674" x2="674" y1="275" y2="245" stroke="black" stroke-width="5" stroke-linecap="round"/><line x1="674" x2="700" y1="275" y2="290" stroke="black" stroke-width="5" stroke-linecap="round"/><line x1="726" x2="752" y1="275" y2="290" stroke="black" stroke-width="5" stroke-linecap="round"/><line x1="752" x2="778" y1="290" y2="275" stroke="black" stroke-width="5" stroke-linecap="round"/><line x1="778" x2="804" y1="275" y2="290" stroke="black" stroke-width="5" stroke-linecap="round"/><line x1="830" x2="830" y1="275" y2="245" stroke="black" stroke-width="5" stroke-linecap="round"/><line x1="830" x2="804" y1="245" y2="230" stroke="black" stroke-width="5" stroke-linecap="round"/><line x1="154" x2="128" y1="275" y2="290" stroke="black" stroke-width="5" stroke-linecap="round"/><line x1="128" x2="128" y1="290" y2="320" stroke="black" stroke-width="5" stroke-linecap="round"/><line x1="128" x2="154" y1="320" y2="335" stroke="black" stroke-width="5" stroke-linecap="round"/><line x1="154" x2="180" y1="335" y2="320" stroke="black" stroke-width="5" stroke-linecap="round"/><line x1="180" x2="206" y1="320" y2="335" stroke="black" stroke-width="5" stroke-linecap="round"/><line x1="206" x2="232" y1="335" y2="320" stroke="black" stroke-width="5" stroke-linecap="round"/><line x1="232" x2="232" y1="320" y2="290" stroke="black" stroke-width="5" stroke-linecap="round"/><line x1="258" x2="284" y1="335" y2="320" stroke="black" stroke-width="5" stroke-linecap="round"/><line x1="284" x2="310" y1="320" y2="335" stroke="black" stroke-width="5" stroke-linecap="round"/><line x1="310" x2="336" y1="335" y2="320" stroke="black" stroke-width="5" stroke-linecap="round"/><line x1="336" x2="362" y1="320" y2="335" stroke="black" stroke-width="5" stroke-linecap="round"/><line x1="362" x2="388" y1="335" y2="320" stroke="black" stroke-width="5" stroke-linecap="round"/><line x1="388" x2="388" y1="320" y2="290" stroke="black" stroke-width="5" stroke-linecap="round"/><line x1="414" x2="440" y1="335" y2="320" stroke="black" stroke-width="5" stroke-linecap="round"/><line x1="440" x2="440" y1="320" y2="290" stroke="black" stroke-width="5" stroke-linecap="round"/><line x1="440" x2="466" y1="320" y2="335" stroke="black" stroke-width="5" stroke-linecap="round"/><line x1="492" x2="492" y1="320" y2="290" stroke="black" stroke-width="5" stroke-linecap="round"/><line x1="492" x2="518" y1="320" y2="335" stroke="black" stroke-width="5" stroke-linecap="round"/><line x1="518" x2="544" y1="335" y2="320" stroke="black" stroke-width="5" stroke-linecap="round"/><line x1="544" x2="570" y1="320" y2="335" stroke="black" stroke-width="5" stroke-linecap="round"/><line x1="570" x2="596" y1="335" y2="320" stroke="black" stroke-width="5" stroke-linecap="round"/><line x1="596" x2="596" y1="320" y2="290" stroke="black" stroke-width="5" stroke-linecap="round"/><line x1="596" x2="622" y1="320" y2="335" stroke="black" stroke-width="5" stroke-linecap="round"/><line x1="622" x2="648" y1="335" y2="320" stroke="black" stroke-width="5" stroke-linecap="round"/><line x1="648" x2="648" y1="320" y2="290" stroke="black" stroke-width="5" stroke-linecap="round"/><line x1="674" x2="700" y1="335" y2="320" stroke="black" stroke-width="5" stroke-linecap="round"/><line x1="700" x2="700" y1="320" y2="290" stroke="black" stroke-width="5" stroke-linecap="round"/><line x1="726" x2="752" y1="335" y2="320" stroke="black" stroke-width="5" stroke-linecap="round"/><line x1="752" x2="752" y1="320" y2="290" stroke="black" stroke-width="5" stroke-linecap="round"/><line x1="752" x2="778" y1="320" y2="335" stroke="black" stroke-width="5" stroke-linecap="round"/><line x1="804" x2="830" y1="320" y2="335" stroke="black" stroke-width="5" stroke-linecap="round"/><line x1="830" x2="856" y1="335" y2="320" stroke="black" stroke-width="5" stroke-linecap="round"/><line x1="856" x2="856" y1="320" y2="290" stroke="black" stroke-width="5" stroke-linecap="round"/><line x1="856" x2="830" y1="290" y2="275" stroke="black" stroke-width="5" stroke-linecap="round"/><line x1="128" x2="102" y1="320" y2="335" stroke="black" stroke-width="5" stroke-linecap="round"/><line x1="102" x2="102" y1="335" y2="365" stroke="black" stroke-width="5" stroke-linecap="round"/><line x1="128" x2="154" y1="380" y2="365" stroke="black" stroke-width="5" stroke-linecap="round"/><line x1="154" x2="180" y1="365" y2="380" stroke="black" stroke-width="5" stroke-linecap="round"/><line x1="206" x2="206" y1="365" y2="335" stroke="black" stroke-width="5" stroke-linecap="round"/><line x1="232" x2="258" y1="380" y2="365" stroke="black" stroke-width="5" stroke-linecap="round"/><line x1="258" x2="258" y1="365" y2="335" stroke="black" stroke-width="5" stroke-linecap="round"/><line x1="258" x2="284" y1="365" y2="380" stroke="black" stroke-width="5" stroke-linecap="round"/><line x1="284" x2="310" y1="380" y2="365" stroke="black" stroke-width="5" stroke-linecap="round"/><line x1="310" x2="336" y1="365" y2="380" stroke="black" stroke-width="5" stroke-linecap="round"/><line x1="336" x2="362" y1="380" y2="365" stroke="black" stroke-width="5" stroke-linecap="round"/><line x1="362" x2="388" y1="365" y2="380" stroke="black" stroke-width="5" stroke-linecap="round"/><line x1="388" x2="414" y1="380" y2="365" stroke="black" stroke-width="5" stroke-linecap="round"/><line x1="414" x2="440" y1="365" y2="380" stroke="black" stroke-width="5" stroke-linecap="round"/><line x1="440" x2="466" y1="380" y2="365" stroke="black" stroke-width="5" stroke-linecap="round"/><line x1="492" x2="518" y1="380" y2="365" stroke="black" stroke-width="5" stroke-linecap="round"/><line x1="518" x2="518" y1="365" y2="335" stroke="black" stroke-width="5" stroke-linecap="round"/><line x1="544" x2="570" y1="380" y2="365" stroke="black" stroke-width="5" stroke-linecap="round"/><line x1="622" x2="622" y1="365" y2="335" stroke="black" stroke-width="5" stroke-linecap="round"/><line x1="622" x2="648" y1="365" y2="380" stroke="black" stroke-width="5" stroke-linecap="round"/><line x1="674" x2="674" y1="365" y2="335" stroke="black" stroke-width="5" stroke-linecap="round"/><line x1="700" x2="726" y1="380" y2="365" stroke="black" stroke-width="5" stroke-linecap="round"/><line x1="726" x2="726" y1="365" y2="335" stroke="black" stroke-width="5" stroke-linecap="round"/><line x1="778" x2="778" y1="365" y2="335" stroke="black" stroke-width="5" stroke-linecap="round"/><line x1="778" x2="804" y1="365" y2="380" stroke="black" stroke-width="5" stroke-linecap="round"/><line x1="830" x2="830" y1="365" y2="335" stroke="black" stroke-width="5" stroke-linecap="round"/><line x1="830" x2="856" y1="365" y2="380" stroke="black" stroke-width="5" stroke-linecap="round"/><line x1="882" x2="882" y1="365" y2="335" stroke="black" stroke-width="5" stroke-linecap="round"/><line x1="882" x2="856" y1="335" y2="320" stroke="black" stroke-width="5" stroke-linecap="round"/><line x1="102" x2="76" y1="365" y2="380" stroke="black" stroke-width="5" stroke-linecap="round"/><line x1="76" x2="76" y1="380" y2="410" stroke="black" stroke-width="5" stroke-linecap="round"/><line x1="102" x2="128" y1="425" y2="410" stroke="black" stroke-width="5" stroke-linecap="round"/><line x1="154" x2="180" y1="425" y2="410" stroke="black" stroke-width="5" stroke-linecap="round"/><line x1="180" x2="180" y1="410" y2="380" stroke="black" stroke-width="5" stroke-linecap="round"/><line x1="180" x2="206" y1="410" y2="425" stroke="black" stroke-width="5" stroke-linecap="round"/><line x1="206" x2="232" y1="425" y2="410" stroke="black" stroke-width="5" stroke-linecap="round"/><line x1="232" x2="232" y1="410" y2="380" stroke="black" stroke-width="5" stroke-linecap="round"/><line x1="258" x2="284" y1="425" y2="410" stroke="black" stroke-width="5" stroke-linecap="round"/><line x1="284" x2="310" y1="410" y2="425" stroke="black" stroke-width="5" stroke-linecap="round"/><line x1="310" x2="336" y1="425" y2="410" stroke="black" stroke-width="5" stroke-linecap="round"/><line x1="362" x2="388" y1="425" y2="410" stroke="black" stroke-width="5" stroke-linecap="round"/><line x1="388" x2="388" y1="410" y2="380" stroke="black" stroke-width="5" stroke-linecap="round"/><line x1="388" x2="414" y1="410" y2="425" stroke="black" stroke-width="5" stroke-linecap="round"/><line x1="414" x2="440" y1="425" y2="410" stroke="black" stroke-width="5" stroke-linecap="round"/><line x1="440" x2="466" y1="410" y2="425" stroke="black" stroke-width="5" stroke-linecap="round"/><line x1="466" x2="492" y1="425" y2="410" stroke="black" stroke-width="5" stroke-linecap="round"/><line x1="492" x2="492" y1="410" y2="380" stroke="black" stroke-width="5" stroke-linecap="round"/><line x1="492" x2="518" y1="410" y2="425" stroke="black" stroke-width="5" stroke-linecap="round"/><line x1="544" x2="544" y1="410" y2="380" stroke="black" stroke-width="5" stroke-linecap="round"/><line x1="544" x2="570" y1="410" y2="425" stroke="black" stroke-width="5" stroke-linecap="round"/><line x1="596" x2="596" y1="410" y2="380" stroke="black" stroke-width="5" stroke-linecap="round"/><line x1="596" x2="622" y1="410" y2="425" stroke="black" stroke-width="5" stroke-linecap="round"/><line x1="622" x2="648" y1="425" y2="410" stroke="black" stroke-width="5" stroke-linecap="round"/><line x1="648" x2="648" y1="410" y2="380" stroke="black" stroke-width="5" stroke-linecap="round"/><line x1="648" x2="674" y1="410" y2="425" stroke="black" stroke-width="5" stroke-linecap="round"/><line x1="674" x2="700" y1="425" y2="410" stroke="black" stroke-width="5" stroke-linecap="round"/><line x1="700" x2="700" y1="410" y2="380" stroke="black" stroke-width="5" stroke-linecap="round"/><line x1="752" x2="752" y1="410" y2="380" stroke="black" stroke-width="5" stroke-linecap="round"/><line x1="752" x2="778" y1="410" y2="425" stroke="black" stroke-width="5" stroke-linecap="round"/><line x1="778" x2="804" y1="425" y2="410" stroke="black" stroke-width="5" stroke-linecap="round"/><line x1="804" x2="804" y1="410" y2="380" stroke="black" stroke-width="5" stroke-linecap="round"/><line x1="804" x2="830" y1="410" y2="425" stroke="black" stroke-width="5" stroke-linecap="round"/><line x1="856" x2="856" y1="410" y2="380" stroke="black" stroke-width="5" stroke-linecap="round"/><line x1="856" x2="882" y1="410" y2="425" stroke="black" stroke-width="5" stroke-linecap="round"/><line x1="908" x2="908" y1="410" y2="380" stroke="black" stroke-width="5" stroke-linecap="round"/><line x1="908" x2="882" y1="380" y2="365" stroke="black" stroke-width="5" stroke-linecap="round"/><line x1="76" x2="50" y1="410" y2="425" stroke="black" stroke-width="5" stroke-linecap="round"/><line x1="50" x2="50" y1="425" y2="455" stroke="black" stroke-width="5" stroke-linecap="round"/><line x1="50" x2="76" y1="455" y2="470" stroke="black" stroke-width="5" stroke-linecap="round"/><line x1="76" x2="102" y1="470" y2="455" stroke="black" stroke-width="5" stroke-linecap="round"/><line x1="102" x2="102" y1="455" y2="425" stroke="black" stroke-width="5" stroke-linecap="round"/><line x1="128" x2="154" y1="470" y2="455" stroke="black" stroke-width="5" stroke-linecap="round"/><line x1="154" x2="154" y1="455" y2="425" stroke="black" stroke-width="5" stroke-linecap="round"/><line x1="180" x2="206" y1="470" y2="455" stroke="black" stroke-width="5" stroke-linecap="round"/><line x1="206" x2="232" y1="455" y2="470" stroke="black" stroke-width="5" stroke-linecap="round"/><line x1="232" x2="258" y1="470" y2="455" stroke="black" stroke-width="5" stroke-linecap="round"/><line x1="258" x2="284" y1="455" y2="470" stroke="black" stroke-width="5" stroke-linecap="round"/><line x1="284" x2="310" y1="470" y2="455" stroke="black" stroke-width="5" stroke-linecap="round"/><line x1="310" x2="310" y1="455" y2="425" stroke="black" stroke-width="5" stroke-linecap="round"/><line x1="362" x2="362" y1="455" y2="425" stroke="black" stroke-width="5" stroke-linecap="round"/><line x1="362" x2="388" y1="455" y2="470" stroke="black" stroke-width="5" stroke-linecap="round"/><line x1="414" x2="440" y1="455" y2="470" stroke="black" stroke-width="5" stroke-linecap="round"/><line x1="466" x2="466" y1="455" y2="425" stroke="black" stroke-width="5" stroke-linecap="round"/><line x1="518" x2="518" y1="455" y2="425" stroke="black" stroke-width="5" stroke-linecap="round"/><line x1="544" x2="570" y1="470" y2="455" stroke="black" stroke-width="5" stroke-linecap="round"/><line x1="570" x2="570" y1="455" y2="425" stroke="black" stroke-width="5" stroke-linecap="round"/><line x1="570" x2="596" y1="455" y2="470" stroke="black" stroke-width="5" stroke-linecap="round"/><line x1="596" x2="622" y1="470" y2="455" stroke="black" stroke-width="5" stroke-linecap="round"/><line x1="674" x2="674" y1="455" y2="425" stroke="black" stroke-width="5" stroke-linecap="round"/><line x1="674" x2="700" y1="455" y2="470" stroke="black" stroke-width="5" stroke-linecap="round"/><line x1="726" x2="726" y1="455" y2="425" stroke="black" stroke-width="5" stroke-linecap="round"/><line x1="726" x2="752" y1="455" y2="470" stroke="black" stroke-width="5" stroke-linecap="round"/><line x1="752" x2="778" y1="470" y2="455" stroke="black" stroke-width="5" stroke-linecap="round"/><line x1="778" x2="804" y1="455" y2="470" stroke="black" stroke-width="5" stroke-linecap="round"/><line x1="830" x2="830" y1="455" y2="425" stroke="black" stroke-width="5" stroke-linecap="round"/><line x1="830" x2="856" y1="455" y2="470" stroke="black" stroke-width="5" stroke-linecap="round"/><line x1="882" x2="882" y1="455" y2="425" stroke="black" stroke-width="5" stroke-linecap="round"/><line x1="908" x2="934" y1="470" y2="455" stroke="black" stroke-width="5" stroke-linecap="round"/><line x1="934" x2="934" y1="455" y2="425" stroke="black" stroke-width="5" stroke-linecap="round"/><line x1="934" x2="908" y1="425" y2="410" stroke="black" stroke-width="5" stroke-linecap="round"/><line x1="76" x2="76" y1="470" y2="500" stroke="black" stroke-width="5" stroke-linecap="round"/><line x1="76" x2="102" y1="500" y2="515" stroke="black" stroke-width="5" stroke-linecap="round"/><line x1="128" x2="128" y1="500" y2="470" stroke="black" stroke-width="5" stroke-linecap="round"/><line x1="128" x2="154" y1="500" y2="515" stroke="black" stroke-width="5" stroke-linecap="round"/><line x1="180" x2="180" y1="500" y2="470" stroke="black" stroke-width="5" stroke-linecap="round"/><line x1="180" x2="206" y1="500" y2="515" stroke="black" stroke-width="5" stroke-linecap="round"/><line x1="232" x2="258" y1="500" y2="515" stroke="black" stroke-width="5" stroke-linecap="round"/><line x1="258" x2="284" y1="515" y2="500" stroke="black" stroke-width="5" stroke-linecap="round"/><line x1="310" x2="336" y1="515" y2="500" stroke="black" stroke-width="5" stroke-linecap="round"/><line x1="336" x2="336" y1="500" y2="470" stroke="black" stroke-width="5" stroke-linecap="round"/><line x1="336" x2="362" y1="500" y2="515" stroke="black" stroke-width="5" stroke-linecap="round"/><line x1="362" x2="388" y1="515" y2="500" stroke="black" stroke-width="5" stroke-linecap="round"/><line x1="388" x2="388" y1="500" y2="470" stroke="black" stroke-width="5" stroke-linecap="round"/><line x1="414" x2="440" y1="515" y2="500" stroke="black" stroke-width="5" stroke-linecap="round"/><line x1="440" x2="440" y1="500" y2="470" stroke="black" stroke-width="5" stroke-linecap="round"/><line x1="440" x2="466" y1="500" y2="515" stroke="black" stroke-width="5" stroke-linecap="round"/><line x1="466" x2="492" y1="515" y2="500" stroke="black" stroke-width="5" stroke-linecap="round"/><line x1="492" x2="492" y1="500" y2="470" stroke="black" stroke-width="5" stroke-linecap="round"/><line x1="492" x2="518" y1="500" y2="515" stroke="black" stroke-width="5" stroke-linecap="round"/><line x1="518" x2="544" y1="515" y2="500" stroke="black" stroke-width="5" stroke-linecap="round"/><line x1="544" x2="544" y1="500" y2="470" stroke="black" stroke-width="5" stroke-linecap="round"/><line x1="570" x2="596" y1="515" y2="500" stroke="black" stroke-width="5" stroke-linecap="round"/><line x1="596" x2="596" y1="500" y2="470" stroke="black" stroke-width="5" stroke-linecap="round"/><line x1="622" x2="648" y1="515" y2="500" stroke="black" stroke-width="5" stroke-linecap="round"/><line x1="648" x2="648" y1="500" y2="470" stroke="black" stroke-width="5" stroke-linecap="round"/><line x1="674" x2="700" y1="515" y2="500" stroke="black" stroke-width="5" stroke-linecap="round"/><line x1="700" x2="700" y1="500" y2="470" stroke="black" stroke-width="5" stroke-linecap="round"/><line x1="726" x2="752" y1="515" y2="500" stroke="black" stroke-width="5" stroke-linecap="round"/><line x1="752" x2="752" y1="500" y2="470" stroke="black" stroke-width="5" stroke-linecap="round"/><line x1="804" x2="804" y1="500" y2="470" stroke="black" stroke-width="5" stroke-linecap="round"/><line x1="830" x2="856" y1="515" y2="500" stroke="black" stroke-width="5" stroke-linecap="round"/><line x1="856" x2="856" y1="500" y2="470" stroke="black" stroke-width="5" stroke-linecap="round"/><line x1="882" x2="908" y1="515" y2="500" stroke="black" stroke-width="5" stroke-linecap="round"/><line x1="908" x2="908" y1="500" y2="470" stroke="black" stroke-width="5" stroke-linecap="round"/><line x1="102" x2="102" y1="515" y2="545" stroke="black" stroke-width="5" stroke-linecap="round"/><line x1="102" x2="128" y1="545" y2="560" stroke="black" stroke-width="5" stroke-linecap="round"/><line x1="154" x2="154" y1="545" y2="515" stroke="black" stroke-width="5" stroke-linecap="round"/><line x1="180" x2="206" y1="560" y2="545" stroke="black" stroke-width="5" stroke-linecap="round"/><line x1="206" x2="206" y1="545" y2="515" stroke="black" stroke-width="5" stroke-linecap="round"/><line x1="206" x2="232" y1="545" y2="560" stroke="black" stroke-width="5" stroke-linecap="round"/><line x1="258" x2="258" y1="545" y2="515" stroke="black" stroke-width="5" stroke-linecap="round"/><line x1="258" x2="284" y1="545" y2="560" stroke="black" stroke-width="5" stroke-linecap="round"/><line x1="284" x2="310" y1="560" y2="545" stroke="black" stroke-width="5" stroke-linecap="round"/><line x1="310" x2="310" y1="545" y2="515" stroke="black" stroke-width="5" stroke-linecap="round"/><line x1="336" x2="362" y1="560" y2="545" stroke="black" stroke-width="5" stroke-linecap="round"/><line x1="362" x2="388" y1="545" y2="560" stroke="black" stroke-width="5" stroke-linecap="round"/><line x1="388" x2="414" y1="560" y2="545" stroke="black" stroke-width="5" stroke-linecap="round"/><line x1="414" x2="414" y1="545" y2="515" stroke="black" stroke-width="5" stroke-linecap="round"/><line x1="466" x2="492" y1="545" y2="560" stroke="black" stroke-width="5" stroke-linecap="round"/><line x1="492" x2="518" y1="560" y2="545" stroke="black" stroke-width="5" stroke-linecap="round"/><line x1="518" x2="544" y1="545" y2="560" stroke="black" stroke-width="5" stroke-linecap="round"/><line x1="544" x2="570" y1="560" y2="545" stroke="black" stroke-width="5" stroke-linecap="round"/><line x1="570" x2="570" y1="545" y2="515" stroke="black" stroke-width="5" stroke-linecap="round"/><line x1="570" x2="596" y1="545" y2="560" stroke="black" stroke-width="5" stroke-linecap="round"/><line x1="622" x2="622" y1="545" y2="515" stroke="black" stroke-width="5" stroke-linecap="round"/><line x1="622" x2="648" y1="545" y2="560" stroke="black" stroke-width="5" stroke-linecap="round"/><line x1="674" x2="674" y1="545" y2="515" stroke="black" stroke-width="5" stroke-linecap="round"/><line x1="674" x2="700" y1="545" y2="560" stroke="black" stroke-width="5" stroke-linecap="round"/><line x1="700" x2="726" y1="560" y2="545" stroke="black" stroke-width="5" stroke-linecap="round"/><line x1="726" x2="726" y1="545" y2="515" stroke="black" stroke-width="5" stroke-linecap="round"/><line x1="752" x2="778" y1="560" y2="545" stroke="black" stroke-width="5" stroke-linecap="round"/><line x1="778" x2="778" y1="545" y2="515" stroke="black" stroke-width="5" stroke-linecap="round"/><line x1="778" x2="804" y1="545" y2="560" stroke="black" stroke-width="5" stroke-linecap="round"/><line x1="804" x2="830" y1="560" y2="545" stroke="black" stroke-width="5" stroke-linecap="round"/><line x1="830" x2="830" y1="545" y2="515" stroke="black" stroke-width="5" stroke-linecap="round"/><line x1="856" x2="882" y1="560" y2="545" stroke="black" stroke-width="5" stroke-linecap="round"/><line x1="882" x2="882" y1="545" y2="515" stroke="black" stroke-width="5" stroke-linecap="round"/><line x1="128" x2="128" y1="560" y2="590" stroke="black" stroke-width="5" stroke-linecap="round"/><line x1="128" x2="154" y1="590" y2="605" stroke="black" stroke-width="5" stroke-linecap="round"/><line x1="180" x2="180" y1="590" y2="560" stroke="black" stroke-width="5" stroke-linecap="round"/><line x1="180" x2="206" y1="590" y2="605" stroke="black" stroke-width="5" stroke-linecap="round"/><line x1="232" x2="232" y1="590" y2="560" stroke="black" stroke-width="5" stroke-linecap="round"/><line x1="232" x2="258" y1="590" y2="605" stroke="black" stroke-width="5" stroke-linecap="round"/><line x1="258" x2="284" y1="605" y2="590" stroke="black" stroke-width="5" stroke-linecap="round"/><line x1="284" x2="310" y1="590" y2="605" stroke="black" stroke-width="5" stroke-linecap="round"/><line x1="310" x2="336" y1="605" y2="590" stroke="black" stroke-width="5" stroke-linecap="round"/><line x1="336" x2="336" y1="590" y2="560" stroke="black" stroke-width="5" stroke-linecap="round"/><line x1="362" x2="388" y1="605" y2="590" stroke="black" stroke-width="5" stroke-linecap="round"/><line x1="388" x2="388" y1="590" y2="560" stroke="black" stroke-width="5" stroke-linecap="round"/><line x1="414" x2="440" y1="605" y2="590" stroke="black" stroke-width="5" stroke-linecap="round"/><line x1="440" x2="440" y1="590" y2="560" stroke="black" stroke-width="5" stroke-linecap="round"/><line x1="466" x2="492" y1="605" y2="590" stroke="black" stroke-width="5" stroke-linecap="round"/><line x1="492" x2="492" y1="590" y2="560" stroke="black" stroke-width="5" stroke-linecap="round"/><line x1="492" x2="518" y1="590" y2="605" stroke="black" stroke-width="5" stroke-linecap="round"/><line x1="544" x2="570" y1="590" y2="605" stroke="black" stroke-width="5" stroke-linecap="round"/><line x1="570" x2="596" y1="605" y2="590" stroke="black" stroke-width="5" stroke-linecap="round"/><line x1="596" x2="622" y1="590" y2="605" stroke="black" stroke-width="5" stroke-linecap="round"/><line x1="622" x2="648" y1="605" y2="590" stroke="black" stroke-width="5" stroke-linecap="round"/><line x1="648" x2="648" y1="590" y2="560" stroke="black" stroke-width="5" stroke-linecap="round"/><line x1="648" x2="674" y1="590" y2="605" stroke="black" stroke-width="5" stroke-linecap="round"/><line x1="674" x2="700" y1="605" y2="590" stroke="black" stroke-width="5" stroke-linecap="round"/><line x1="700" x2="726" y1="590" y2="605" stroke="black" stroke-width="5" stroke-linecap="round"/><line x1="726" x2="752" y1="605" y2="590" stroke="black" stroke-width="5" stroke-linecap="round"/><line x1="752" x2="752" y1="590" y2="560" stroke="black" stroke-width="5" stroke-linecap="round"/><line x1="778" x2="804" y1="605" y2="590" stroke="black" stroke-width="5" stroke-linecap="round"/><line x1="804" x2="830" y1="590" y2="605" stroke="black" stroke-width="5" stroke-linecap="round"/><line x1="830" x2="856" y1="605" y2="590" stroke="black" stroke-width="5" stroke-linecap="round"/><line x1="856" x2="856" y1="590" y2="560" stroke="black" stroke-width="5" stroke-linecap="round"/><line x1="154" x2="154" y1="605" y2="635" stroke="black" stroke-width="5" stroke-linecap="round"/><line x1="154" x2="180" y1="635" y2="650" stroke="black" stroke-width="5" stroke-linecap="round"/><line x1="206" x2="206" y1="635" y2="605" stroke="black" stroke-width="5" stroke-linecap="round"/><line x1="206" x2="232" y1="635" y2="650" stroke="black" stroke-width="5" stroke-linecap="round"/><line x1="258" x2="284" y1="635" y2="650" stroke="black" stroke-width="5" stroke-linecap="round"/><line x1="284" x2="310" y1="650" y2="635" stroke="black" stroke-width="5" stroke-linecap="round"/><line x1="310" x2="336" y1="635" y2="650" stroke="black" stroke-width="5" stroke-linecap="round"/><line x1="362" x2="362" y1="635" y2="605" stroke="black" stroke-width="5" stroke-linecap="round"/><line x1="388" x2="414" y1="650" y2="635" stroke="black" stroke-width="5" stroke-linecap="round"/><line x1="414" x2="414" y1="635" y2="605" stroke="black" stroke-width="5" stroke-linecap="round"/><line x1="414" x2="440" y1="635" y2="650" stroke="black" stroke-width="5" stroke-linecap="round"/><line x1="440" x2="466" y1="650" y2="635" stroke="black" stroke-width="5" stroke-linecap="round"/><line x1="492" x2="518" y1="650" y2="635" stroke="black" stroke-width="5" stroke-linecap="round"/><line x1="518" x2="518" y1="635" y2="605" stroke="black" stroke-width="5" stroke-linecap="round"/><line x1="518" x2="544" y1="635" y2="650" stroke="black" stroke-width="5" stroke-linecap="round"/><line x1="544" x2="570" y1="650" y2="635" stroke="black" stroke-width="5" stroke-linecap="round"/><line x1="570" x2="596" y1="635" y2="650" stroke="black" stroke-width="5" stroke-linecap="round"/><line x1="622" x2="622" y1="635" y2="605" stroke="black" stroke-width="5" stroke-linecap="round"/><line x1="648" x2="674" y1="650" y2="635" stroke="black" stroke-width="5" stroke-linecap="round"/><line x1="700" x2="726" y1="650" y2="635" stroke="black" stroke-width="5" stroke-linecap="round"/><line x1="726" x2="726" y1="635" y2="605" stroke="black" stroke-width="5" stroke-linecap="round"/><line x1="726" x2="752" y1="635" y2="650" stroke="black" stroke-width="5" stroke-linecap="round"/><line x1="778" x2="778" y1="635" y2="605" stroke="black" stroke-width="5" stroke-linecap="round"/><line x1="804" x2="830" y1="650" y2="635" stroke="black" stroke-width="5" stroke-linecap="round"/><line x1="830" x2="830" y1="635" y2="605" stroke="black" stroke-width="5" stroke-linecap="round"/><line x1="180" x2="180" y1="650" y2="680" stroke="black" stroke-width="5" stroke-linecap="round"/><line x1="180" x2="206" y1="680" y2="695" stroke="black" stroke-width="5" stroke-linecap="round"/><line x1="232" x2="232" y1="680" y2="650" stroke="black" stroke-width="5" stroke-linecap="round"/><line x1="232" x2="258" y1="680" y2="695" stroke="black" stroke-width="5" stroke-linecap="round"/><line x1="284" x2="284" y1="680" y2="650" stroke="black" stroke-width="5" stroke-linecap="round"/><line x1="310" x2="336" y1="695" y2="680" stroke="black" stroke-width="5" stroke-linecap="round"/><line x1="336" x2="336" y1="680" y2="650" stroke="black" stroke-width="5" stroke-linecap="round"/><line x1="336" x2="362" y1="680" y2="695" stroke="black" stroke-width="5" stroke-linecap="round"/><line x1="362" x2="388" y1="695" y2="680" stroke="black" stroke-width="5" stroke-linecap="round"/><line x1="388" x2="414" y1="680" y2="695" stroke="black" stroke-width="5" stroke-linecap="round"/><line x1="414" x2="440" y1="695" y2="680" stroke="black" stroke-width="5" stroke-linecap="round"/><line x1="440" x2="440" y1="680" y2="650" stroke="black" stroke-width="5" stroke-linecap="round"/><line x1="440" x2="466" y1="680" y2="695" stroke="black" stroke-width="5" stroke-linecap="round"/><line x1="492" x2="492" y1="680" y2="650" stroke="black" stroke-width="5" stroke-linecap="round"/><line x1="518" x2="544" y1="695" y2="680" stroke="black" stroke-width="5" stroke-linecap="round"/><line x1="544" x2="570" y1="680" y2="695" stroke="black" stroke-width="5" stroke-linecap="round"/><line x1="596" x2="596" y1="680" y2="650" stroke="black" stroke-width="5" stroke-linecap="round"/><line x1="596" x2="622" y1="680" y2="695" stroke="black" stroke-width="5" stroke-linecap="round"/><line x1="622" x2="648" y1="695" y2="680" stroke="black" stroke-width="5" stroke-linecap="round"/><line x1="648" x2="648" y1="680" y2="650" stroke="black" stroke-width="5" stroke-linecap="round"/><line x1="648" x2="674" y1="680" y2="695" stroke="black" stroke-width="5" stroke-linecap="round"/><line x1="700" x2="700" y1="680" y2="650" stroke="black" stroke-width="5" stroke-linecap="round"/><line x1="752" x2="752" y1="680" y2="650" stroke="black" stroke-width="5" stroke-linecap="round"/><line x1="778" x2="804" y1="695" y2="680" stroke="black" stroke-width="5" stroke-linecap="round"/><line x1="804" x2="804" y1="680" y2="650" stroke="black" stroke-width="5" stroke-linecap="round"/><line x1="206" x2="206" y1="695" y2="725" stroke="black" stroke-width="5" stroke-linecap="round"/><line x1="206" x2="232" y1="725" y2="740" stroke="black" stroke-width="5" stroke-linecap="round"/><line x1="258" x2="258" y1="725" y2="695" stroke="black" stroke-width="5" stroke-linecap="round"/><line x1="258" x2="284" y1="725" y2="740" stroke="black" stroke-width="5" stroke-linecap="round"/><line x1="284" x2="310" y1="740" y2="725" stroke="black" stroke-width="5" stroke-linecap="round"/><line x1="310" x2="310" y1="725" y2="695" stroke="black" stroke-width="5" stroke-linecap="round"/><line x1="336" x2="362" y1="740" y2="725" stroke="black" stroke-width="5" stroke-linecap="round"/><line x1="362" x2="388" y1="725" y2="740" stroke="black" stroke-width="5" stroke-linecap="round"/><line x1="388" x2="414" y1="740" y2="725" stroke="black" stroke-width="5" stroke-linecap="round"/><line x1="440" x2="466" y1="740" y2="725" stroke="black" stroke-width="5" stroke-linecap="round"/><line x1="466" x2="466" y1="725" y2="695" stroke="black" stroke-width="5" stroke-linecap="round"/><line x1="466" x2="492" y1="725" y2="740" stroke="black" stroke-width="5" stroke-linecap="round"/><line x1="492" x2="518" y1="740" y2="725" stroke="black" stroke-width="5" stroke-linecap="round"/><line x1="518" x2="544" y1="725" y2="740" stroke="black" stroke-width="5" stroke-linecap="round"/><line x1="570" x2="570" y1="725" y2="695" stroke="black" stroke-width="5" stroke-linecap="round"/><line x1="570" x2="596" y1="725" y2="740" stroke="black" stroke-width="5" stroke-linecap="round"/><line x1="596" x2="622" y1="740" y2="725" stroke="black" stroke-width="5" stroke-linecap="round"/><line x1="674" x2="674" y1="725" y2="695" stroke="black" stroke-width="5" stroke-linecap="round"/><line x1="674" x2="700" y1="725" y2="740" stroke="black" stroke-width="5" stroke-linecap="round"/><line x1="700" x2="726" y1="740" y2="725" stroke="black" stroke-width="5" stroke-linecap="round"/><line x1="726" x2="726" y1="725" y2="695" stroke="black" stroke-width="5" stroke-linecap="round"/><line x1="726" x2="752" y1="725" y2="740" stroke="black" stroke-width="5" stroke-linecap="round"/><line x1="752" x2="778" y1="740" y2="725" stroke="black" stroke-width="5" stroke-linecap="round"/><line x1="778" x2="778" y1="725" y2="695" stroke="black" stroke-width="5" stroke-linecap="round"/><line x1="232" x2="232" y1="740" y2="770" stroke="black" stroke-width="5" stroke-linecap="round"/><line x1="232" x2="258" y1="770" y2="785" stroke="black" stroke-width="5" stroke-linecap="round"/><line x1="284" x2="284" y1="770" y2="740" stroke="black" stroke-width="5" stroke-linecap="round"/><line x1="310" x2="336" y1="785" y2="770" stroke="black" stroke-width="5" stroke-linecap="round"/><line x1="336" x2="336" y1="770" y2="740" stroke="black" stroke-width="5" stroke-linecap="round"/><line x1="336" x2="362" y1="770" y2="785" stroke="black" stroke-width="5" stroke-linecap="round"/><line x1="388" x2="414" y1="770" y2="785" stroke="black" stroke-width="5" stroke-linecap="round"/><line x1="414" x2="440" y1="785" y2="770" stroke="black" stroke-width="5" stroke-linecap="round"/><line x1="440" x2="440" y1="770" y2="740" stroke="black" stroke-width="5" stroke-linecap="round"/><line x1="440" x2="466" y1="770" y2="785" stroke="black" stroke-width="5" stroke-linecap="round"/><line x1="492" x2="518" y1="770" y2="785" stroke="black" stroke-width="5" stroke-linecap="round"/><line x1="544" x2="544" y1="770" y2="740" stroke="black" stroke-width="5" stroke-linecap="round"/><line x1="544" x2="570" y1="770" y2="785" stroke="black" stroke-width="5" stroke-linecap="round"/><line x1="570" x2="596" y1="785" y2="770" stroke="black" stroke-width="5" stroke-linecap="round"/><line x1="596" x2="596" y1="770" y2="740" stroke="black" stroke-width="5" stroke-linecap="round"/><line x1="622" x2="648" y1="785" y2="770" stroke="black" stroke-width="5" stroke-linecap="round"/><line x1="648" x2="648" y1="770" y2="740" stroke="black" stroke-width="5" stroke-linecap="round"/><line x1="648" x2="674" y1="770" y2="785" stroke="black" stroke-width="5" stroke-linecap="round"/><line x1="674" x2="700" y1="785" y2="770" stroke="black" stroke-width="5" stroke-linecap="round"/><line x1="726" x2="752" y1="785" y2="770" stroke="black" stroke-width="5" stroke-linecap="round"/><line x1="752" x2="752" y1="770" y2="740" stroke="black" stroke-width="5" stroke-linecap="round"/><line x1="258" x2="258" y1="785" y2="815" stroke="black" stroke-width="5" stroke-linecap="round"/><line x1="258" x2="284" y1="815" y2="830" stroke="black" stroke-width="5" stroke-linecap="round"/><line x1="284" x2="310" y1="830" y2="815" stroke="black" stroke-width="5" stroke-linecap="round"/><line x1="310" x2="310" y1="815" y2="785" stroke="black" stroke-width="5" stroke-linecap="round"/><line x1="310" x2="336" y1="815" y2="830" stroke="black" stroke-width="5" stroke-linecap="round"/><line x1="336" x2="362" y1="830" y2="815" stroke="black" stroke-width="5" stroke-linecap="round"/><line x1="362" x2="388" y1="815" y2="830" stroke="black" stroke-width="5" stroke-linecap="round"/><line x1="388" x2="414" y1="830" y2="815" stroke="black" stroke-width="5" stroke-linecap="round"/><line x1="414" x2="440" y1="815" y2="830" stroke="black" stroke-width="5" stroke-linecap="round"/><line x1="440" x2="466" y1="830" y2="815" stroke="black" stroke-width="5" stroke-linecap="round"/><line x1="466" x2="492" y1="815" y2="830" stroke="black" stroke-width="5" stroke-linecap="round"/><line x1="492" x2="518" y1="830" y2="815" stroke="black" stroke-width="5" stroke-linecap="round"/><line x1="518" x2="518" y1="815" y2="785" stroke="black" stroke-width="5" stroke-linecap="round"/><line x1="518" x2="544" y1="815" y2="830" stroke="black" stroke-width="5" stroke-linecap="round"/><line x1="544" x2="570" y1="830" y2="815" stroke="black" stroke-width="5" stroke-linecap="round"/><line x1="570" x2="596" y1="815" y2="830" stroke="black" stroke-width="5" stroke-linecap="round"/><line x1="596" x2="622" y1="830" y2="815" stroke="black" stroke-width="5" stroke-linecap="round"/><line x1="622" x2="622" y1="815" y2="785" stroke="black" stroke-width="5" stroke-linecap="round"/><line x1="622" x2="648" y1="815" y2="830" stroke="black" stroke-width="5" stroke-linecap="round"/><line x1="648" x2="674" y1="830" y2="815" stroke="black" stroke-width="5" stroke-linecap="round"/><line x1="674" x2="700" y1="815" y2="830" stroke="black" stroke-width="5" stroke-linecap="round"/><line x1="726" x2="726" y1="815" y2="785" stroke="black" stroke-width="5" stroke-linecap="round"/></svg>