<svg version="1.1" width="880" height="790" xmlns="http://www.w3.org/2000/svg">
<rect width="100%" height="100%" fill="white"/>
<polygon points="258,50 232,65 232,95 258,110 284,95 284,65" fill="green"/><polygon points="622,680 596,695 596,725 622,740 648,725 648,695" fill="red"/><line x1="258" x2="232" y1="50" y2="65" stroke="black" stroke-width="5" stroke-linecap="round"/>
<line x1="232" x2="232" y1="65" y2="95" stroke="black" stroke-width="5" stroke-linecap="round"/>
<line x1="232" x2="258" y1="95" y2="110" stroke="black" stroke-width="5" stroke-linecap="round"/>
<line x1="258" x2="284" y1="110" y2="95" stroke="black" stroke-width="5" stroke-linecap="round"/>
<line x1="284" x2="258" y1="65" y2="50" stroke="black" stroke-width="5" stroke-linecap="round"/>
<line x1="310" x2="284" y1="50" y2="65" stroke="black" stroke-width="5" stroke-linecap="round"/>
<line x1="336" x2="336" y1="95" y2="65" stroke="black" stroke-width="5" stroke-linecap="round"/>
<line x1="336" x2="310" y1="65" y2="50" stroke="black" stroke-width="5" stroke-linecap="round"/>
<line x1="362" x2="336" y1="50" y2="65" stroke="black" stroke-width="5" stroke-linecap="round"/>
<line x1="362" x2="388" y1="110" y2="95" stroke="black" stroke-width="5" stroke-linecap="round"/>
<line x1="388" x2="362" y1="65" y2="50" stroke="black" stroke-width="5" stroke-linecap="round"/>
<line x1="414" x2="388" y1="50" y2="65" stroke="black" stroke-width="5" stroke-linecap="round"/>
<line x1="414" x2="440" y1="110" y2="95" stroke="black" stroke-width="5" stroke-linecap="round"/>
<line x1="440" x2="440" y1="95" y2="65" stroke="black" stroke-width="5" stroke-linecap="round"/>
<line x1="440" x2="414" y1="65" y2="50" stroke="black" stroke-width="5" stroke-linecap="round"/>
<line x1="466" x2="440" y1="50" y2="65" stroke="black" stroke-width="5" stroke-linecap="round"/>
<line x1="492" x2="492" y1="95" y2="65" stroke="black" stroke-width="5" stroke-linecap="round"/>
<line x1="492" x2="466" y1="65" y2="50" stroke="black" stroke-width="5" stroke-linecap="round"/>
<line x1="518" x2="492" y1="50" y2="65" stroke="black" stroke-width="5" stroke-linecap="round"/>
<line x1="492" x2="518" y1="95" y2="110" stroke="black" stroke-width="5" stroke-linecap="round"/>
<line x1="544" x2="518" y1="65" y2="50" stroke="black" stroke-width="5" stroke-linecap="round"/>
<line x1="570" x2="544" y1="50" y2="65" stroke="black" stroke-width="5" stroke-linecap="round"/>
<line x1="544" x2="570" y1="95" y2="110" stroke="black" stroke-width="5" stroke-linecap="round"/>
<line x1="596" x2="570" y1="65" y2="50" stroke="black" stroke-width="5" stroke-linecap="round"/>
<line x1="622" x2="596" y1="50" y2="65" stroke="black" stroke-width="5" stroke-linecap="round"/>
<line x1="596" x2="622" y1="95" y2="110" stroke="black" stroke-width="5" stroke-linecap="round"/>
<line x1="622" x2="648" y1="110" y2="95" stroke="black" stroke-width="5" stroke-linecap="round"/>
<line x1="648" x2="648" y1="95" y2="65" stroke="black" stroke-width="5" stroke-linecap="round"/>
<line x1="648" x2="622" y1="65" y2="50" stroke="black" stroke-width="5" stroke-linecap="round"/>
<line x1="232" x2="206" y1="95" y2="110" stroke="black" stroke-width="5" stroke-linecap="round"/>
<line x1="206" x2="206" y1="110" y2="140" stroke="black" stroke-width="5" stroke-linecap="round"/>
<line x1="232" x2="258" y1="155" y2="140" stroke="black" stroke-width="5" stroke-linecap="round"/>
<line x1="258" x2="284" y1="140" y2="155" stroke="black" stroke-width="5" stroke-linecap="round"/>
<line x1="284" x2="310" y1="155" y2="140" stroke="black" stroke-width="5" stroke-linecap="round"/>
<line x1="310" x2="310" y1="140" y2="110" stroke="black" stroke-width="5" stroke-linecap="round"/>
<line x1="310" x2="336" y1="140" y2="155" stroke="black" stroke-width="5" stroke-linecap="round"/>
<line x1="336" x2="362" y1="155" y2="140" stroke="black" stroke-width="5" stroke-linecap="round"/>
<line x1="362" x2="362" y1="140" y2="110" stroke="black" stroke-width="5" stroke-linecap="round"/>
<line x1="362" x2="388" y1="140" y2="155" stroke="black" stroke-width="5" stroke-linecap="round"/>
<line x1="388" x2="414" y1="155" y2="140" stroke="black" stroke-width="5" stroke-linecap="round"/>
<line x1="414" x2="440" y1="140" y2="155" stroke="black" stroke-width="5" stroke-linecap="round"/>
<line x1="440" x2="466" y1="155" y2="140" stroke="black" stroke-width="5" stroke-linecap="round"/>
<line x1="466" x2="466" y1="140" y2="110" stroke="black" stroke-width="5" stroke-linecap="round"/>
<line x1="492" x2="518" y1="155" y2="140" stroke="black" stroke-width="5" stroke-linecap="round"/>
<line x1="518" x2="518" y1="140" y2="110" stroke="black" stroke-width="5" stroke-linecap="round"/>
<line x1="518" x2="544" y1="140" y2="155" stroke="black" stroke-width="5" stroke-linecap="round"/>
<line x1="570" x2="570" y1="140" y2="110" stroke="black" stroke-width="5" stroke-linecap="round"/>
<line x1="570" x2="596" y1="140" y2="155" stroke="black" stroke-width="5" stroke-linecap="round"/>
<line x1="622" x2="622" y1="140" y2="110" stroke="black" stroke-width="5" stroke-linecap="round"/>
<line x1="674" x2="674" y1="140" y2="110" stroke="black" stroke-width="5" stroke-linecap="round"/>
<line x1="674" x2="648" y1="110" y2="95" stroke="black" stroke-width="5" stroke-linecap="round"/>
<line x1="206" x2="180" y1="140" y2="155" stroke="black" stroke-width="5" stroke-linecap="round"/>
<line x1="180" x2="180" y1="155" y2="185" stroke="black" stroke-width="5" stroke-linecap="round"/>
<line x1="206" x2="232" y1="200" y2="185" stroke="black" stroke-width="5" stroke-linecap="round"/>
<line x1="232" x2="232" y1="185" y2="155" stroke="black" stroke-width="5" stroke-linecap="round"/>
<line x1="258" x2="284" y1="200" y2="185" stroke="black" stroke-width="5" stroke-linecap="round"/>
<line x1="310" x2="336" y1="200" y2="185" stroke="black" stroke-width="5" stroke-linecap="round"/>
<line x1="336" x2="336" y1="185" y2="155" stroke="black" stroke-width="5" stroke-linecap="round"/>
<line x1="336" x2="362" y1="185" y2="200" stroke="black" stroke-width="5" stroke-linecap="round"/>
<line x1="388" x2="414" y1="185" y2="200" stroke="black" stroke-width="5" stroke-linecap="round"/>
<line x1="414" x2="440" y1="200" y2="185" stroke="black" stroke-width="5" stroke-linecap="round"/>
<line x1="440" x2="466" y1="185" y2="200" stroke="black" stroke-width="5" stroke-linecap="round"/>
<line x1="466" x2="492" y1="200" y2="185" stroke="black" stroke-width="5" stroke-linecap="round"/>
<line x1="492" x2="492" y1="185" y2="155" stroke="black" stroke-width="5" stroke-linecap="round"/>
<line x1="492" x2="518" y1="185" y2="200" stroke="black" stroke-width="5" stroke-linecap="round"/>
<line x1="544" x2="570" y1="185" y2="200" stroke="black" stroke-width="5" stroke-linecap="round"/>
<line x1="570" x2="596" y1="200" y2="185" stroke="black" stroke-width="5" stroke-linecap="round"/>
<line x1="596" x2="596" y1="185" y2="155" stroke="black" stroke-width="5" stroke-linecap="round"/>
<line x1="596" x2="622" y1="185" y2="200" stroke="black" stroke-width="5" stroke-linecap="round"/>
<line x1="622" x2="648" y1="200" y2="185" stroke="black" stroke-width="5" stroke-linecap="round"/>
<line x1="648" x2="648" y1="185" y2="155" stroke="black" stroke-width="5" stroke-linecap="round"/>
<line x1="648" x2="674" y1="185" y2="200" stroke="black" stroke-width="5" stroke-linecap="round"/>
<line x1="700" x2="700" y1="185" y2="155" stroke="black" stroke-width="5" stroke-linecap="round"/>
<line x1="700" x2="674" y1="155" y2="140" stroke="black" stroke-width="5" stroke-linecap="round"/>
<line x1="180" x2="154" y1="185" y2="200" stroke="black" stroke-width="5" stroke-linecap="round"/>
<line x1="154" x2="154" y1="200" y2="230" stroke="black" stroke-width="5" stroke-linecap="round"/>
<line x1="180" x2="206" y1="245" y2="230" stroke="black" stroke-width="5" stroke-linecap="round"/>
<line x1="206" x2="206" y1="230" y2="200" stroke="black" stroke-width="5" stroke-linecap="round"/>
<line x1="206" x2="232" y1="230" y2="245" stroke="black" stroke-width="5" stroke-linecap="round"/>
<line x1="258" x2="258" y1="230" y2="200" stroke="black" stroke-width="5" stroke-linecap="round"/>
<line x1="258" x2="284" y1="230" y2="245" stroke="black" stroke-width="5" stroke-linecap="round"/>
<line x1="310" x2="310" y1="230" y2="200" stroke="black" stroke-width="5" stroke-linecap="round"/>
<line x1="362" x2="362" y1="230" y2="200" stroke="black" stroke-width="5" stroke-linecap="round"/>
<line x1="362" x2="388" y1="230" y2="245" stroke="black" stroke-width="5" stroke-linecap="round"/>
<line x1="388" x2="414" y1="245" y2="230" stroke="black" stroke-width="5" stroke-linecap="round"/>
<line x1="414" x2="440" y1="230" y2="245" stroke="black" stroke-width="5" stroke-linecap="round"/>
<line x1="440" x2="466" y1="245" y2="230" stroke="black" stroke-width="5" stroke-linecap="round"/>
<line x1="466" x2="466" y1="230" y2="200" stroke="black" stroke-width="5" stroke-linecap="round"/>
<line x1="518" x2="518" y1="230" y2="200" stroke="black" stroke-width="5" stroke-linecap="round"/>
<line x1="544" x2="570" y1="245" y2="230" stroke="black" stroke-width="5" stroke-linecap="round"/>
<line x1="570" x2="596" y1="230" y2="245" stroke="black" stroke-width="5" stroke-linecap="round"/>
<line x1="596" x2="622" y1="245" y2="230" stroke="black" stroke-width="5" stroke-linecap="round"/>
<line x1="622" x2="648" y1="230" y2="245" stroke="black" stroke-width="5" stroke-linecap="round"/>
<line x1="648" x2="674" y1="245" y2="230" stroke="black" stroke-width="5" stroke-linecap="round"/>
<line x1="674" x2="674" y1="230" y2="200" stroke="black" stroke-width="5" stroke-linecap="round"/>
<line x1="674" x2="700" y1="230" y2="245" stroke="black" stroke-width="5" stroke-linecap="round"/>
<line x1="726" x2="726" y1="230" y2="200" stroke="black" stroke-width="5" stroke-linecap="round"/>
<line x1="726" x2="700" y1="200" y2="185" stroke="black" stroke-width="5" stroke-linecap="round"/>
<line x1="154" x2="128" y1="230" y2="245" stroke="black" stroke-width="5" stroke-linecap="round"/>
<line x1="128" x2="128" y1="245" y2="275" stroke="black" stroke-width="5" stroke-linecap="round"/>
<line x1="180" x2="180" y1="275" y2="245" stroke="black" stroke-width="5" stroke-linecap="round"/>
<line x1="206" x2="232" y1="290" y2="275" stroke="black" stroke-width="5" stroke-linecap="round"/>
<line x1="232" x2="258" y1="275" y2="290" stroke="black" stroke-width="5" stroke-linecap="round"/>
<line x1="258" x2="284" y1="290" y2="275" stroke="black" stroke-width="5" stroke-linecap="round"/>
<line x1="284" x2="284" y1="275" y2="245" stroke="black" stroke-width="5" stroke-linecap="round"/>
<line x1="284" x2="310" y1="275" y2="290" stroke="black" stroke-width="5" stroke-linecap="round"/>
<line x1="310" x2="336" y1="290" y2="275" stroke="black" stroke-width="5" stroke-linecap="round"/>
<line x1="336" x2="336" y1="275" y2="245" stroke="black" stroke-width="5" stroke-linecap="round"/>
<line x1="336" x2="362" y1="275" y2="290" stroke="black" stroke-width="5" stroke-linecap="round"/>
<line x1="388" x2="388" y1="275" y2="245" stroke="black" stroke-width="5" stroke-linecap="round"/>
<line x1="388" x2="414" y1="275" y2="290" stroke="black" stroke-width="5" stroke-linecap="round"/>
<line x1="440" x2="466" y1="275" y2="290" stroke="black" stroke-width="5" stroke-linecap="round"/>
<line x1="466" x2="492" y1="290" y2="275" stroke="black" stroke-width="5" stroke-linecap="round"/>
<line x1="492" x2="492" y1="275" y2="245" stroke="black" stroke-width="5" stroke-linecap="round"/>
<line x1="492" x2="518" y1="275" y2="290" stroke="black" stroke-width="5" stroke-linecap="round"/>
<line x1="518" x2="544" y1="290" y2="275" stroke="black" stroke-width="5" stroke-linecap="round"/>
<line x1="544" x2="544" y1="275" y2="245" stroke="black" stroke-width="5" stroke-linecap="round"/>
<line x1="570" x2="596" y1="290" y2="275" stroke="black" stroke-width="5" stroke-linecap="round"/>
<line x1="596" x2="622" y1="275" y2="290" stroke="black" stroke-width="5" stroke-linecap="round"/>
<line x1="622" x2="648" y1="290" y2="275" stroke="black" stroke-width="5" stroke-linecap="round"/>
<line x1="648" x2="674" y1="275" y2="290" stroke="black" stroke-width="5" stroke-linecap="round"/>
<line x1="700" x2="700" y1="275" y2="245" stroke="black" stroke-width="5" stroke-linecap="round"/>
<line x1="700" x2="726" y1="275" y2="290" stroke="black" stroke-width="5" stroke-linecap="round"/>
<line x1="752" x2="752" y1="275" y2="245" stroke="black" stroke-width="5" stroke-linecap="round"/>
<line x1="752" x2="726" y1="245" y2="230" stroke="black" stroke-width="5" stroke-linecap="round"/>
<line x1="128" x2="102" y1="275" y2="290" stroke="black" stroke-width="5" stroke-linecap="round"/>
<line x1="102" x2="102" y1="290" y2="320" stroke="black" stroke-width="5" stroke-linecap="round"/>
<line x1="128" x2="154" y1="335" y2="320" stroke="black" stroke-width="5" stroke-linecap="round"/>
<line x1="154" x2="154" y1="320" y2="290" stroke="black" stroke-width="5" stroke-linecap="round"/>
<line x1="154" x2="180" y1="320" y2="335" stroke="black" stroke-width="5" stroke-linecap="round"/>
<line x1="180" x2="206" y1="335" y2="320" stroke="black" stroke-width="5" stroke-linecap="round"/>
<line x1="206" x2="206" y1="320" y2="290" stroke="black" stroke-width="5" stroke-linecap="round"/>
<line x1="232" x2="258" y1="335" y2="320" stroke="black" stroke-width="5" stroke-linecap="round"/>
<line x1="258" x2="284" y1="320" y2="335" stroke="black" stroke-width="5" stroke-linecap="round"/>
<line x1="284" x2="310" y1="335" y2="320" stroke="black" stroke-width="5" stroke-linecap="round"/>
<line x1="310" x2="310" y1="320" y2="290" stroke="black" stroke-width="5" stroke-linecap="round"/>
<line x1="336" x2="362" y1="335" y2="320" stroke="black" stroke-width="5" stroke-linecap="round"/>
<line x1="362" x2="388" y1="320" y2="335" stroke="black" stroke-width="5" stroke-linecap="round"/>
<line x1="388" x2="414" y1="335" y2="320" stroke="black" stroke-width="5" stroke-linecap="round"/>
<line x1="414" x2="414" y1="320" y2="290" stroke="black" stroke-width="5" stroke-linecap="round"/>
<line x1="440" x2="466" y1="335" y2="320" stroke="black" stroke-width="5" stroke-linecap="round"/>
<line x1="466" x2="466" y1="320" y2="290" stroke="black" stroke-width="5" stroke-linecap="round"/>
<line x1="466" x2="492" y1="320" y2="335" stroke="black" stroke-width="5" stroke-linecap="round"/>
<line x1="518" x2="518" y1="320" y2="290" stroke="black" stroke-width="5" stroke-linecap="round"/>
<line x1="518" x2="544" y1="320" y2="335" stroke="black" stroke-width="5" stroke-linecap="round"/>
<line x1="570" x2="570" y1="320" y2="290" stroke="black" stroke-width="5" stroke-linecap="round"/>
<line x1="570" x2="596" y1="320" y2="335" stroke="black" stroke-width="5" stroke-linecap="round"/>
<line x1="622" x2="622" y1="320" y2="290" stroke="black" stroke-width="5" stroke-linecap="round"/>
<line x1="674" x2="674" y1="320" y2="290" stroke="black" stroke-width="5" stroke-linecap="round"/>
<line x1="674" x2="700" y1="320" y2="335" stroke="black" stroke-width="5" stroke-linecap="round"/>
<line x1="700" x2="726" y1="335" y2="320" stroke="black" stroke-width="5" stroke-linecap="round"/>
<line x1="726" x2="752" y1="320" y2="335" stroke="black" stroke-width="5" stroke-linecap="round"/>
<line x1="778" x2="778" y1="320" y2="290" stroke="black" stroke-width="5" stroke-linecap="round"/>
<line x1="778" x2="752" y1="290" y2="275" stroke="black" stroke-width="5" stroke-linecap="round"/>
<line x1="102" x2="76" y1="320" y2="335" stroke="black" stroke-width="5" stroke-linecap="round"/>
<line x1="76" x2="76" y1="335" y2="365" stroke="black" stroke-width="5" stroke-linecap="round"/>
<line x1="76" x2="102" y1="365" y2="380" stroke="black" stroke-width="5" stroke-linecap="round"/>
<line x1="128" x2="128" y1="365" y2="335" stroke="black" stroke-width="5" stroke-linecap="round"/>
<line x1="128" x2="154" y1="365" y2="380" stroke="black" stroke-width="5" stroke-linecap="round"/>
<line x1="154" x2="180" y1="380" y2="365" stroke="black" stroke-width="5" stroke-linecap="round"/>
<line x1="206" x2="232" y1="380" y2="365" stroke="black" stroke-width="5" stroke-linecap="round"/>
<line x1="232" x2="232" y1="365" y2="335" stroke="black" stroke-width="5" stroke-linecap="round"/>
<line x1="258" x2="284" y1="380" y2="365" stroke="black" stroke-width="5" stroke-linecap="round"/>
<line x1="284" x2="310" y1="365" y2="380" stroke="black" stroke-width="5" stroke-linecap="round"/>
<line x1="310" x2="336" y1="380" y2="365" stroke="black" stroke-width="5" stroke-linecap="round"/>
<line x1="336" x2="336" y1="365" y2="335" stroke="black" stroke-width="5" stroke-linecap="round"/>
<line x1="336" x2="362" y1="365" y2="380" stroke="black" stroke-width="5" stroke-linecap="round"/>
<line x1="388" x2="414" y1="365" y2="380" stroke="black" stroke-width="5" stroke-linecap="round"/>
<line x1="414" x2="440" y1="380" y2="365" stroke="black" stroke-width="5" stroke-linecap="round"/>
<line x1="440" x2="466" y1="365" y2="380" stroke="black" stroke-width="5" stroke-linecap="round"/>
<line x1="466" x2="492" y1="380" y2="365" stroke="black" stroke-width="5" stroke-linecap="round"/>
<line x1="492" x2="518" y1="365" y2="380" stroke="black" stroke-width="5" stroke-linecap="round"/>
<line x1="518" x2="544" y1="380" y2="365" stroke="black" stroke-width="5" stroke-linecap="round"/>
<line x1="544" x2="544" y1="365" y2="335" stroke="black" stroke-width="5" stroke-linecap="round"/>
<line x1="570" x2="596" y1="380" y2="365" stroke="black" stroke-width="5" stroke-linecap="round"/>
<line x1="596" x2="596" y1="365" y2="335" stroke="black" stroke-width="5" stroke-linecap="round"/>
<line x1="596" x2="622" y1="365" y2="380" stroke="black" stroke-width="5" stroke-linecap="round"/>
<line x1="622" x2="648" y1="380" y2="365" stroke="black" stroke-width="5" stroke-linecap="round"/>
<line x1="648" x2="648" y1="365" y2="335" stroke="black" stroke-width="5" stroke-linecap="round"/>
<line x1="648" x2="674" y1="365" y2="380" stroke="black" stroke-width="5" stroke-linecap="round"/>
<line x1="674" x2="700" y1="380" y2="365" stroke="black" stroke-width="5" stroke-linecap="round"/>
<line x1="700" x2="726" y1="365" y2="380" stroke="black" stroke-width="5" stroke-linecap="round"/>
<line x1="726" x2="752" y1="380" y2="365" stroke="black" stroke-width="5" stroke-linecap="round"/>
<line x1="752" x2="778" y1="365" y2="380" stroke="black" stroke-width="5" stroke-linecap="round"/>
<line x1="804" x2="804" y1="365" y2="335" stroke="black" stroke-width="5" stroke-linecap="round"/>
<line x1="804" x2="778" y1="335" y2="320" stroke="black" stroke-width="5" stroke-linecap="round"/>
<line x1="76" x2="50" y1="365" y2="380" stroke="black" stroke-width="5" stroke-linecap="round"/>
<line x1="50" x2="50" y1="380" y2="410" stroke="black" stroke-width="5" stroke-linecap="round"/>
<line x1="50" x2="76" y1="410" y2="425" stroke="black" stroke-width="5" stroke-linecap="round"/>
<line x1="102" x2="102" y1="410" y2="380" stroke="black" stroke-width="5" stroke-linecap="round"/>
<line x1="102" x2="128" y1="410" y2="425" stroke="black" stroke-width="5" stroke-linecap="round"/>
<line x1="128" x2="154" y1="425" y2="410" stroke="black" stroke-width="5" stroke-linecap="round"/>
<line x1="154" x2="180" y1="410" y2="425" stroke="black" stroke-width="5" stroke-linecap="round"/>
<line x1="206" x2="206" y1="410" y2="380" stroke="black" stroke-width="5" stroke-linecap="round"/>
<line x1="206" x2="232" y1="410" y2="425" stroke="black" stroke-width="5" stroke-linecap="round"/>
<line x1="258" x2="258" y1="410" y2="380" stroke="black" stroke-width="5" stroke-linecap="round"/>
<line x1="310" x2="310" y1="410" y2="380" stroke="black" stroke-width="5" stroke-linecap="round"/>
<line x1="310" x2="336" y1="410" y2="425" stroke="black" stroke-width="5" stroke-linecap="round"/>
<line x1="362" x2="388" y1="410" y2="425" stroke="black" stroke-width="5" stroke-linecap="round"/>
<line x1="388" x2="414" y1="425" y2="410" stroke="black" stroke-width="5" stroke-linecap="round"/>
<line x1="414" x2="414" y1="410" y2="380" stroke="black" stroke-width="5" stroke-linecap="round"/>
<line x1="440" x2="466" y1="425" y2="410" stroke="black" stroke-width="5" stroke-linecap="round"/>
<line x1="466" x2="492" y1="410" y2="425" stroke="black" stroke-width="5" stroke-linecap="round"/>
<line x1="492" x2="518" y1="425" y2="410" stroke="black" stroke-width="5" stroke-linecap="round"/>
<line x1="518" x2="544" y1="410" y2="425" stroke="black" stroke-width="5" stroke-linecap="round"/>
<line x1="544" x2="570" y1="425" y2="410" stroke="black" stroke-width="5" stroke-linecap="round"/>
<line x1="570" x2="570" y1="410" y2="380" stroke="black" stroke-width="5" stroke-linecap="round"/>
<line x1="596" x2="622" y1="425" y2="410" stroke="black" stroke-width="5" stroke-linecap="round"/>
<line x1="622" x2="648" y1="410" y2="425" stroke="black" stroke-width="5" stroke-linecap="round"/>
<line x1="648" x2="674" y1="425" y2="410" stroke="black" stroke-width="5" stroke-linecap="round"/>
<line x1="674" x2="700" y1="410" y2="425" stroke="black" stroke-width="5" stroke-linecap="round"/>
<line x1="700" x2="726" y1="425" y2="410" stroke="black" stroke-width="5" stroke-linecap="round"/>
<line x1="752" x2="778" y1="425" y2="410" stroke="black" stroke-width="5" stroke-linecap="round"/>
<line x1="778" x2="778" y1="410" y2="380" stroke="black" stroke-width="5" stroke-linecap="round"/>
<line x1="778" x2="804" y1="410" y2="425" stroke="black" stroke-width="5" stroke-linecap="round"/>
<line x1="804" x2="830" y1="425" y2="410" stroke="black" stroke-width="5" stroke-linecap="round"/>
<line x1="830" x2="830" y1="410" y2="380" stroke="black" stroke-width="5" stroke-linecap="round"/>
<line x1="830" x2="804" y1="380" y2="365" stroke="black" stroke-width="5" stroke-linecap="round"/>
<line x1="76" x2="76" y1="425" y2="455" stroke="black" stroke-width="5" stroke-linecap="round"/>
<line x1="76" x2="102" y1="455" y2="470" stroke="black" stroke-width="5" stroke-linecap="round"/>
<line x1="128" x2="128" y1="455" y2="425" stroke="black" stroke-width="5" stroke-linecap="round"/>
<line x1="128" x2="154" y1="455" y2="470" stroke="black" stroke-width="5" stroke-linecap="round"/>
<line x1="180" x2="206" y1="455" y2="470" stroke="black" stroke-width="5" stroke-linecap="round"/>
<line x1="206" x2="232" y1="470" y2="455" stroke="black" stroke-width="5" stroke-linecap="round"/>
<line x1="232" x2="232" y1="455" y2="425" stroke="black" stroke-width="5" stroke-linecap="round"/>
<line x1="232" x2="258" y1="455" y2="470" stroke="black" stroke-width="5" stroke-linecap="round"/>
<line x1="258" x2="284" y1="470" y2="455" stroke="black" stroke-width="5" stroke-linecap="round"/>
<line x1="284" x2="284" y1="455" y2="425" stroke="black" stroke-width="5" stroke-linecap="round"/>
<line x1="310" x2="336" y1="470" y2="455" stroke="black" stroke-width="5" stroke-linecap="round"/>
<line x1="336" x2="336" y1="455" y2="425" stroke="black" stroke-width="5" stroke-linecap="round"/>
<line x1="362" x2="388" y1="470" y2="455" stroke="black" stroke-width="5" stroke-linecap="round"/>
<line x1="388" x2="388" y1="455" y2="425" stroke="black" stroke-width="5" stroke-linecap="round"/>
<line x1="414" x2="440" y1="470" y2="455" stroke="black" stroke-width="5" stroke-linecap="round"/>
<line x1="440" x2="440" y1="455" y2="425" stroke="black" stroke-width="5" stroke-linecap="round"/>
<line x1="440" x2="466" y1="455" y2="470" stroke="black" stroke-width="5" stroke-linecap="round"/>
<line x1="492" x2="518" y1="455" y2="470" stroke="black" stroke-width="5" stroke-linecap="round"/>
<line x1="544" x2="544" y1="455" y2="425" stroke="black" stroke-width="5" stroke-linecap="round"/>
<line x1="570" x2="596" y1="470" y2="455" stroke="black" stroke-width="5" stroke-linecap="round"/>
<line x1="596" x2="596" y1="455" y2="425" stroke="black" stroke-width="5" stroke-linecap="round"/>
<line x1="596" x2="622" y1="455" y2="470" stroke="black" stroke-width="5" stroke-linecap="round"/>
<line x1="622" x2="648" y1="470" y2="455" stroke="black" stroke-width="5" stroke-linecap="round"/>
<line x1="674" x2="700" y1="470" y2="455" stroke="black" stroke-width="5" stroke-linecap="round"/>
<line x1="700" x2="700" y1="455" y2="425" stroke="black" stroke-width="5" stroke-linecap="round"/>
<line x1="700" x2="726" y1="455" y2="470" stroke="black" stroke-width="5" stroke-linecap="round"/>
<line x1="726" x2="752" y1="470" y2="455" stroke="black" stroke-width="5" stroke-linecap="round"/>
<line x1="778" x2="804" y1="470" y2="455" stroke="black" stroke-width="5" stroke-linecap="round"/>
<line x1="804" x2="804" y1="455" y2="425" stroke="black" stroke-width="5" stroke-linecap="round"/>
<line x1="102" x2="102" y1="470" y2="500" stroke="black" stroke-width="5" stroke-linecap="round"/>
<line x1="102" x2="128" y1="500" y2="515" stroke="black" stroke-width="5" stroke-linecap="round"/>
<line x1="154" x2="154" y1="500" y2="470" stroke="black" stroke-width="5" stroke-linecap="round"/>
<line x1="180" x2="206" y1="515" y2="500" stroke="black" stroke-width="5" stroke-linecap="round"/>
<line x1="206" x2="206" y1="500" y2="470" stroke="black" stroke-width="5" stroke-linecap="round"/>
<line x1="258" x2="258" y1="500" y2="470" stroke="black" stroke-width="5" stroke-linecap="round"/>
<line x1="258" x2="284" y1="500" y2="515" stroke="black" stroke-width="5" stroke-linecap="round"/>
<line x1="284" x2="310" y1="515" y2="500" stroke="black" stroke-width="5" stroke-linecap="round"/>
<line x1="310" x2="336" y1="500" y2="515" stroke="black" stroke-width="5" stroke-linecap="round"/>
<line x1="336" x2="362" y1="515" y2="500" stroke="black" stroke-width="5" stroke-linecap="round"/>
<line x1="362" x2="362" y1="500" y2="470" stroke="black" stroke-width="5" stroke-linecap="round"/>
<line x1="362" x2="388" y1="500" y2="515" stroke="black" stroke-width="5" stroke-linecap="round"/>
<line x1="388" x2="414" y1="515" y2="500" stroke="black" stroke-width="5" stroke-linecap="round"/>
<line x1="440" x2="466" y1="515" y2="500" stroke="black" stroke-width="5" stroke-linecap="round"/>
<line x1="466" x2="466" y1="500" y2="470" stroke="black" stroke-width="5" stroke-linecap="round"/>
<line x1="492" x2="518" y1="515" y2="500" stroke="black" stroke-width="5" stroke-linecap="round"/>
<line x1="518" x2="518" y1="500" y2="470" stroke="black" stroke-width="5" stroke-linecap="round"/>
<line x1="518" x2="544" y1="500" y2="515" stroke="black" stroke-width="5" stroke-linecap="round"/>
<line x1="544" x2="570" y1="515" y2="500" stroke="black" stroke-width="5" stroke-linecap="round"/>
<line x1="570" x2="570" y1="500" y2="470" stroke="black" stroke-width="5" stroke-linecap="round"/>
<line x1="596" x2="622" y1="515" y2="500" stroke="black" stroke-width="5" stroke-linecap="round"/>
<line x1="622" x2="648" y1="500" y2="515" stroke="black" stroke-width="5" stroke-linecap="round"/>
<line x1="648" x2="674" y1="515" y2="500" stroke="black" stroke-width="5" stroke-linecap="round"/>
<line x1="674" x2="674" y1="500" y2="470" stroke="black" stroke-width="5" stroke-linecap="round"/>
<line x1="726" x2="726" y1="500" y2="470" stroke="black" stroke-width="5" stroke-linecap="round"/>
<line x1="752" x2="778" y1="515" y2="500" stroke="black" stroke-width="5" stroke-linecap="round"/>
<line x1="778" x2="778" y1="500" y2="470" stroke="black" stroke-width="5" stroke-linecap="round"/>
<line x1="128" x2="128" y1="515" y2="545" stroke="black" stroke-width="5" stroke-linecap="round"/>
<line x1="128" x2="154" y1="545" y2="560" stroke="black" stroke-width="5" stroke-linecap="round"/>
<line x1="154" x2="180" y1="560" y2="545" stroke="black" stroke-width="5" stroke-linecap="round"/>
<line x1="180" x2="180" y1="545" y2="515" stroke="black" stroke-width="5" stroke-linecap="round"/>
<line x1="206" x2="232" y1="560" y2="545" stroke="black" stroke-width="5" stroke-linecap="round"/>
<line x1="232" x2="232" y1="545" y2="515" stroke="black" stroke-width="5" stroke-linecap="round"/>
<line x1="232" x2="258" y1="545" y2="560" stroke="black" stroke-width="5" stroke-linecap="round"/>
<line x1="284" x2="284" y1="545" y2="515" stroke="black" stroke-width="5" stroke-linecap="round"/>
<line x1="310" x2="336" y1="560" y2="545" stroke="black" stroke-width="5" stroke-linecap="round"/>
<line x1="336" x2="362" y1="545" y2="560" stroke="black" stroke-width="5" stroke-linecap="round"/>
<line x1="362" x2="388" y1="560" y2="545" stroke="black" stroke-width="5" stroke-linecap="round"/>
<line x1="388" x2="414" y1="545" y2="560" stroke="black" stroke-width="5" stroke-linecap="round"/>
<line x1="440" x2="440" y1="545" y2="515" stroke="black" stroke-width="5" stroke-linecap="round"/>
<line x1="440" x2="466" y1="545" y2="560" stroke="black" stroke-width="5" stroke-linecap="round"/>
<line x1="492" x2="492" y1="545" y2="515" stroke="black" stroke-width="5" stroke-linecap="round"/>
<line x1="492" x2="518" y1="545" y2="560" stroke="black" stroke-width="5" stroke-linecap="round"/>
<line x1="518" x2="544" y1="560" y2="545" stroke="black" stroke-width="5" stroke-linecap="round"/>
<line x1="570" x2="596" y1="560" y2="545" stroke="black" stroke-width="5" stroke-linecap="round"/>
<line x1="596" x2="596" y1="545" y2="515" stroke="black" stroke-width="5" stroke-linecap="round"/>
<line x1="622" x2="648" y1="560" y2="545" stroke="black" stroke-width="5" stroke-linecap="round"/>
<line x1="648" x2="674" y1="545" y2="560" stroke="black" stroke-width="5" stroke-linecap="round"/>
<line x1="674" x2="700" y1="560" y2="545" stroke="black" stroke-width="5" stroke-linecap="round"/>
<line x1="700" x2="700" y1="545" y2="515" stroke="black" stroke-width="5" stroke-linecap="round"/>
<line x1="726" x2="752" y1="560" y2="545" stroke="black" stroke-width="5" stroke-linecap="round"/>
<line x1="752" x2="752" y1="545" y2="515" stroke="black" stroke-width="5" stroke-linecap="round"/>
<line x1="154" x2="154" y1="560" y2="590" stroke="black" stroke-width="5" stroke-linecap="round"/>
<line x1="154" x2="180" y1="590" y2="605" stroke="black" stroke-width="5" stroke-linecap="round"/>
<line x1="206" x2="232" y1="590" y2="605" stroke="black" stroke-width="5" stroke-linecap="round"/>
<line x1="258" x2="258" y1="590" y2="560" stroke="black" stroke-width="5" stroke-linecap="round"/>
<line x1="258" x2="284" y1="590" y2="605" stroke="black" stroke-width="5" stroke-linecap="round"/>
<line x1="284" x2="310" y1="605" y2="590" stroke="black" stroke-width="5" stroke-linecap="round"/>
<line x1="310" x2="310" y1="590" y2="560" stroke="black" stroke-width="5" stroke-linecap="round"/>
<line x1="336" x2="362" y1="605" y2="590" stroke="black" stroke-width="5" stroke-linecap="round"/>
<line x1="362" x2="388" y1="590" y2="605" stroke="black" stroke-width="5" stroke-linecap="round"/>
<line x1="414" x2="440" y1="590" y2="605" stroke="black" stroke-width="5" stroke-linecap="round"/>
<line x1="440" x2="466" y1="605" y2="590" stroke="black" stroke-width="5" stroke-linecap="round"/>
<line x1="466" x2="466" y1="590" y2="560" stroke="black" stroke-width="5" stroke-linecap="round"/>
<line x1="492" x2="518" y1="605" y2="590" stroke="black" stroke-width="5" stroke-linecap="round"/>
<line x1="518" x2="518" y1="590" y2="560" stroke="black" stroke-width="5" stroke-linecap="round"/>
<line x1="544" x2="570" y1="605" y2="590" stroke="black" stroke-width="5" stroke-linecap="round"/>
<line x1="570" x2="570" y1="590" y2="560" stroke="black" stroke-width="5" stroke-linecap="round"/>
<line x1="570" x2="596" y1="590" y2="605" stroke="black" stroke-width="5" stroke-linecap="round"/>
<line x1="622" x2="622" y1="590" y2="560" stroke="black" stroke-width="5" stroke-linecap="round"/>
<line x1="674" x2="674" y1="590" y2="560" stroke="black" stroke-width="5" stroke-linecap="round"/>
<line x1="674" x2="700" y1="590" y2="605" stroke="black" stroke-width="5" stroke-linecap="round"/>
<line x1="700" x2="726" y1="605" y2="590" stroke="black" stroke-width="5" stroke-linecap="round"/>
<line x1="726" x2="726" y1="590" y2="560" stroke="black" stroke-width="5" stroke-linecap="round"/>
<line x1="180" x2="180" y1="605" y2="635" stroke="black" stroke-width="5" stroke-linecap="round"/>
<line x1="180" x2="206" y1="635" y2="650" stroke="black" stroke-width="5" stroke-linecap="round"/>
<line x1="206" x2="232" y1="650" y2="635" stroke="black" stroke-width="5" stroke-linecap="round"/>
<line x1="232" x2="232" y1="635" y2="605" stroke="black" stroke-width="5" stroke-linecap="round"/>
<line x1="232" x2="258" y1="635" y2="650" stroke="black" stroke-width="5" stroke-linecap="round"/>
<line x1="284" x2="284" y1="635" y2="605" stroke="black" stroke-width="5" stroke-linecap="round"/>
<line x1="284" x2="310" y1="635" y2="650" stroke="black" stroke-width="5" stroke-linecap="round"/>
<line x1="310" x2="336" y1="650" y2="635" stroke="black" stroke-width="5" stroke-linecap="round"/>
<line x1="336" x2="336" y1="635" y2="605" stroke="black" stroke-width="5" stroke-linecap="round"/>
<line x1="388" x2="388" y1="635" y2="605" stroke="black" stroke-width="5" stroke-linecap="round"/>
<line x1="388" x2="414" y1="635" y2="650" stroke="black" stroke-width="5" stroke-linecap="round"/>
<line x1="440" x2="440" y1="635" y2="605" stroke="black" stroke-width="5" stroke-linecap="round"/>
<line x1="440" x2="466" y1="635" y2="650" stroke="black" stroke-width="5" stroke-linecap="round"/>
<line x1="492" x2="492" y1="635" y2="605" stroke="black" stroke-width="5" stroke-linecap="round"/>
<line x1="492" x2="518" y1="635" y2="650" stroke="black" stroke-width="5" stroke-linecap="round"/>
<line x1="518" x2="544" y1="650" y2="635" stroke="black" stroke-width="5" stroke-linecap="round"/>
<line x1="544" x2="570" y1="635" y2="650" stroke="black" stroke-width="5" stroke-linecap="round"/>
<line x1="596" x2="596" y1="635" y2="605" stroke="black" stroke-width="5" stroke-linecap="round"/>
<line x1="596" x2="622" y1="635" y2="650" stroke="black" stroke-width="5" stroke-linecap="round"/>
<line x1="622" x2="648" y1="650" y2="635" stroke="black" stroke-width="5" stroke-linecap="round"/>
<line x1="648" x2="648" y1="635" y2="605" stroke="black" stroke-width="5" stroke-linecap="round"/>
<line x1="674" x2="700" y1="650" y2="635" stroke="black" stroke-width="5" stroke-linecap="round"/>
<line x1="700" x2="700" y1="635" y2="605" stroke="black" stroke-width="5" stroke-linecap="round"/>
<line x1="206" x2="206" y1="650" y2="680" stroke="black" stroke-width="5" stroke-linecap="round"/>
<line x1="206" x2="232" y1="680" y2="695" stroke="black" stroke-width="5" stroke-linecap="round"/>
<line x1="258" x2="284" y1="680" y2="695" stroke="black" stroke-width="5" stroke-linecap="round"/>
<line x1="284" x2="310" y1="695" y2="680" stroke="black" stroke-width="5" stroke-linecap="round"/>
<line x1="310" x2="310" y1="680" y2="650" stroke="black" stroke-width="5" stroke-linecap="round"/>
<line x1="336" x2="362" y1="695" y2="680" stroke="black" stroke-width="5" stroke-linecap="round"/>
<line x1="362" x2="362" y1="680" y2="650" stroke="black" stroke-width="5" stroke-linecap="round"/>
<line x1="362" x2="388" y1="680" y2="695" stroke="black" stroke-width="5" stroke-linecap="round"/>
<line x1="414" x2="414" y1="680" y2="650" stroke="black" stroke-width="5" stroke-linecap="round"/>
<line x1="414" x2="440" y1="680" y2="695" stroke="black" stroke-width="5" stroke-linecap="round"/>
<line x1="440" x2="466" y1="695" y2="680" stroke="black" stroke-width="5" stroke-linecap="round"/>
<line x1="466" x2="466" y1="680" y2="650" stroke="black" stroke-width="5" stroke-linecap="round"/>
<line x1="466" x2="492" y1="680" y2="695" stroke="black" stroke-width="5" stroke-linecap="round"/>
<line x1="518" x2="518" y1="680" y2="650" stroke="black" stroke-width="5" stroke-linecap="round"/>
<line x1="544" x2="570" y1="695" y2="680" stroke="black" stroke-width="5" stroke-linecap="round"/>
<line x1="596" x2="622" y1="695" y2="680" stroke="black" stroke-width="5" stroke-linecap="round"/>
<line x1="622" x2="622" y1="680" y2="650" stroke="black" stroke-width="5" stroke-linecap="round"/>
<line x1="648" x2="674" y1="695" y2="680" stroke="black" stroke-width="5" stroke-linecap="round"/>
<line x1="674" x2="674" y1="680" y2="650" stroke="black" stroke-width="5" stroke-linecap="round"/>
<line x1="232" x2="232" y1="695" y2="725" stroke="black" stroke-width="5" stroke-linecap="round"/>
<line x1="232" x2="258" y1="725" y2="740" stroke="black" stroke-width="5" stroke-linecap="round"/>
<line x1="258" x2="284" y1="740" y2="725" stroke="black" stroke-width="5" stroke-linecap="round"/>
<line x1="284" x2="310" y1="725" y2="740" stroke="black" stroke-width="5" stroke-linecap="round"/>
<line x1="310" x2="336" y1="740" y2="725" stroke="black" stroke-width="5" stroke-linecap="round"/>
<line x1="336" x2="362" y1="725" y2="740" stroke="black" stroke-width="5" stroke-linecap="round"/>
<line x1="362" x2="388" y1="740" y2="725" stroke="black" stroke-width="5" stroke-linecap="round"/>
<line x1="388" x2="388" y1="725" y2="695" stroke="black" stroke-width="5" stroke-linecap="round"/>
<line x1="388" x2="414" y1="725" y2="740" stroke="black" stroke-width="5" stroke-linecap="round"/>
<line x1="414" x2="440" y1="740" y2="725" stroke="black" stroke-width="5" stroke-linecap="round"/>
<line x1="440" x2="466" y1="725" y2="740" stroke="black" stroke-width="5" stroke-linecap="round"/>
<line x1="466" x2="492" y1="740" y2="725" stroke="black" stroke-width="5" stroke-linecap="round"/>
<line x1="492" x2="518" y1="725" y2="740" stroke="black" stroke-width="5" stroke-linecap="round"/>
<line x1="518" x2="544" y1="740" y2="725" stroke="black" stroke-width="5" stroke-linecap="round"/>
<line x1="544" x2="544" y1="725" y2="695" stroke="black" stroke-width="5" stroke-linecap="round"/>
<line x1="544" x2="570" y1="725" y2="740" stroke="black" stroke-width="5" stroke-linecap="round"/>
<line x1="570" x2="596" y1="740" y2="725" stroke="black" stroke-width="5" stroke-linecap="round"/>
<line x1="596" x2="596" y1="725" y2="695" stroke="black" stroke-width="5" stroke-linecap="round"/>
<line x1="596" x2="622" y1="725" y2="740" stroke="black" stroke-width="5" stroke-linecap="round"/>
<line x1="622" x2="648" y1="740" y2="725" stroke="black" stroke-width="5" stroke-linecap="round"/>
<line x1="648" x2="648" y1="725" y2="695" stroke="black" stroke-width="5" stroke-linecap="round"/>
<polyline points="258,80 310,80 284,125 232,125 206,170 180,215 154,260 180,305 206,260 258,260 232,215 258,170 310,170 284,215 310,260 336,215 362,260 388,305 336,305 310,350 258,350 232,395 258,440 284,395 310,440 284,485 336,485 362,440 336,395 388,395 362,350 414,350 440,305 414,260 466,260 492,215 518,260 544,215 518,170 570,170 544,125 518,80 570,80 596,125 622,170 648,125 674,170 700,215 726,260 752,305 700,305 674,260 622,260 570,260 544,305 570,350 544,395 492,395 440,395 414,440 388,485 440,485 414,530 362,530 310,530 284,575 258,530 232,485 206,530 180,575 232,575 258,620 284,665 232,665 258,710 310,710 336,665 362,620 388,665 414,710 466,710 518,710 492,665 466,620 492,575 466,530 492,485 466,440 518,440 544,485 570,440 596,395 648,395 700,395 752,395 726,440 778,440 752,485 726,530 700,485 674,530 622,530 596,575 622,620 648,575 674,620 648,665 622,710 " fill="none" stroke="blue" stroke-width="5" stroke-linejoin="round" stroke-linecap="round" />
</svg>